HIERARCHY
ROOT Hips
{
	OFFSET 56.877701 -32.693596 43.373703
	CHANNELS 6 Xposition Yposition Zposition Zrotation Xrotation Yrotation
	JOINT Chest
	{
		OFFSET -0.779999 1.005800 5.403099
		CHANNELS 6 Xposition Yposition Zposition Zrotation Xrotation Yrotation
		JOINT Chest2
		{
			OFFSET 0.000000 0.000000 4.236801
			CHANNELS 6 Xposition Yposition Zposition Zrotation Xrotation Yrotation
			JOINT Neck
			{
				OFFSET 0.000000 0.000000 9.874401
				CHANNELS 6 Xposition Yposition Zposition Zrotation Xrotation Yrotation
				JOINT Head
				{
					OFFSET 0.000000 0.000002 2.173893
					CHANNELS 6 Xposition Yposition Zposition Zrotation Xrotation Yrotation
					End Site
					{
						OFFSET 0.000000 0.000000 6.508102
					}
				}
			}
			JOINT LeftCollar
			{
				OFFSET 2.681599 -0.377600 5.432499
				CHANNELS 6 Xposition Yposition Zposition Zrotation Xrotation Yrotation
				JOINT LeftShoulder
				{
					OFFSET 5.161499 0.000000 0.000000
					CHANNELS 6 Xposition Yposition Zposition Zrotation Xrotation Yrotation
					JOINT LeftElbow
					{
						OFFSET 0.000000 0.000000 -10.869099
						CHANNELS 6 Xposition Yposition Zposition Zrotation Xrotation Yrotation
						JOINT LeftWrist
						{
							OFFSET 0.000000 0.000000 -13.344799
							CHANNELS 6 Xposition Yposition Zposition Zrotation Xrotation Yrotation
							End Site
							{
								OFFSET 0.000000 0.000000 -2.173901
							}
						}
					}
				}
			}
			JOINT RightCollar
			{
				OFFSET -2.381901 -1.419600 6.136600
				CHANNELS 6 Xposition Yposition Zposition Zrotation Xrotation Yrotation
				JOINT RightShoulder
				{
					OFFSET -4.550499 0.000000 0.000000
					CHANNELS 6 Xposition Yposition Zposition Zrotation Xrotation Yrotation
					JOINT RightElbow
					{
						OFFSET 0.000000 0.000000 -11.106499
						CHANNELS 6 Xposition Yposition Zposition Zrotation Xrotation Yrotation
						JOINT RightWrist
						{
							OFFSET 0.000000 0.000000 -12.874298
							CHANNELS 6 Xposition Yposition Zposition Zrotation Xrotation Yrotation
							End Site
							{
								OFFSET 0.000000 0.000000 -2.173901
							}
						}
					}
				}
			}
		}
	}
	JOINT LeftHip
	{
		OFFSET 2.431900 0.469601 -2.489399
		CHANNELS 6 Xposition Yposition Zposition Zrotation Xrotation Yrotation
		JOINT LeftKnee
		{
			OFFSET 0.000000 -0.000004 -18.200201
			CHANNELS 6 Xposition Yposition Zposition Zrotation Xrotation Yrotation
			JOINT LeftAnkle
			{
				OFFSET 0.000000 0.000000 -16.279900
				CHANNELS 6 Xposition Yposition Zposition Zrotation Xrotation Yrotation
				End Site
				{
					OFFSET 0.000000 -8.394100 0.000000
				}
			}
		}
	}
	JOINT RightHip
	{
		OFFSET -1.987999 -0.073502 -2.713001
		CHANNELS 6 Xposition Yposition Zposition Zrotation Xrotation Yrotation
		JOINT RightKnee
		{
			OFFSET 0.000000 -0.000004 -19.547802
			CHANNELS 6 Xposition Yposition Zposition Zrotation Xrotation Yrotation
			JOINT RightAnkle
			{
				OFFSET 0.000000 0.000000 -14.881199
				CHANNELS 6 Xposition Yposition Zposition Zrotation Xrotation Yrotation
				End Site
				{
					OFFSET 0.000000 -7.922699 0.000000
				}
			}
		}
	}
}
MOTION
Frames: 6
Frame Time: 0.041667
69.747398 -37.418594 40.598999 4299.898928 18.159187 -6.376622 -0.779996 1.005803 5.403095 21.692560 -6.728888 2.312671 0.000006 -0.000009 4.236795 -20.002317 -2.412168 -2.186023 -0.000008 0.000002 9.874395 58.272326 10.088962 4.128680 0.000003 0.000012 2.173893 3.471036 -0.264154 5.878873 2.681589 -0.377596 5.432503 -0.440606 1.723761 1.008227 5.161498 -0.000004 0.000005 167.805536 -163.650649 95.868877 -0.000004 -0.000004 -10.869089 -13.787358 -27.234546 11.652277 -0.000004 -0.000004 -13.344810 -60.114291 -7.712659 8.559908 -2.381909 -1.419596 6.136594 15.678880 6.773958 17.714546 -4.550515 -0.000006 -0.000008 -1273.194472 -484.959277 -491.778975 -0.000007 -0.000004 -11.106494 634.280600 -52.445379 649.291279 0.000002 -0.000012 -12.874290 -404.562869 -4.301374 1.756655 2.431900 0.469599 -2.489401 -330.909961 -37.657671 24.468144 0.000006 -0.000010 -18.200195 317.924242 51.676317 31.640493 -0.000004 -0.000005 -16.279896 24.384569 18.862484 -9.642394 -1.987993 -0.073490 -2.713009 -120.884185 -27.917725 -84.115952 -0.000008 -0.000005 -19.547798 -1787.245874 147.875740 28.547262 0.000003 0.000007 -14.881195 2178.424905 46.209740 -380.597648
69.751297 -37.425198 40.598400 4299.960127 18.084908 -6.401037 -0.779997 1.005796 5.403091 21.623911 -6.685353 2.330879 0.000003 -0.000002 4.236804 -19.982755 -2.412936 -2.188077 -0.000003 0.000006 9.874395 58.253031 10.085893 4.075838 0.000004 -0.000006 2.173886 3.456968 -0.265729 5.920387 2.681591 -0.377598 5.432499 -0.464466 1.749046 1.022135 5.161510 -0.000001 0.000010 167.752151 -163.728295 95.941195 -0.000003 0.000002 -10.869107 -14.148482 -27.036944 11.344352 -0.000001 0.000003 -13.344799 -59.582042 -7.632827 8.340662 -2.381892 -1.419595 6.136592 15.714175 6.829362 17.587705 -4.550496 -0.000006 -0.000006 -1272.841597 -484.981516 -491.518171 0.000002 -0.000001 -11.106499 634.331198 -52.381182 649.472416 0.000001 -0.000003 -12.874298 -404.544345 -4.373939 1.892679 2.431896 0.469595 -2.489393 -330.944850 -37.579800 24.429813 -0.000006 -0.000015 -18.200201 318.038552 51.725306 31.585978 -0.000006 -0.000009 -16.279896 24.211067 18.821254 -9.642625 -1.987997 -0.073503 -2.712999 -120.904525 -27.954195 -84.050061 -0.000007 -0.000009 -19.547798 -1790.677361 149.964153 31.105084 -0.000003 0.000006 -14.881189 2175.618736 45.543083 -381.771211
69.756401 -37.432693 40.598404 4300.016517 18.016494 -6.448473 -0.779991 1.005805 5.403098 21.562842 -6.632817 2.377247 -0.000004 0.000001 4.236800 -19.928101 -2.418066 -2.185598 -0.000004 -0.000006 9.874403 58.186457 10.083386 4.033697 0.000005 0.000003 2.173887 3.462870 -0.275227 5.938246 2.681599 -0.377602 5.432506 -0.516532 1.766998 1.050073 5.161505 -0.000005 -0.000004 167.699203 -163.790395 95.987756 0.000001 0.000006 -10.869102 -14.673702 -26.834097 10.935309 -0.000000 0.000002 -13.344795 -58.919261 -7.702602 8.204532 -2.381895 -1.419604 6.136594 15.700402 6.829425 17.448920 -4.550505 -0.000004 0.000000 -1272.454188 -485.109049 -491.211578 0.000002 -0.000010 -11.106494 634.252131 -52.145639 649.536455 -0.000000 0.000002 -12.874296 -404.448012 -4.526665 1.956936 2.431910 0.469607 -2.489399 -330.959357 -37.481063 24.411936 0.000002 -0.000012 -18.200205 318.143627 51.750738 31.542305 -0.000008 -0.000007 -16.279894 24.056925 18.782580 -9.643078 -1.987995 -0.073497 -2.713001 -120.910481 -27.999585 -84.001341 -0.000007 -0.000001 -19.547792 -1790.604797 150.017715 31.086592 -0.000013 0.000004 -14.881197 2175.685180 45.418750 -381.915109
69.761597 -37.439995 40.599300 4300.060230 17.968185 -6.475934 -0.780001 1.005804 5.403096 21.516662 -6.606482 2.400622 0.000007 -0.000002 4.236798 -19.863184 -2.422314 -2.179994 0.000010 0.000000 9.874398 58.087262 10.100149 4.021183 0.000003 -0.000006 2.173887 3.495628 -0.300414 5.920279 2.681604 -0.377597 5.432503 -0.583168 1.771271 1.136244 5.161503 -0.000004 0.000004 167.695733 -163.555027 96.061987 -0.000005 -0.000004 -10.869099 -14.511205 -26.501262 10.887498 0.000005 0.000014 -13.344805 -59.131550 -7.541097 7.884729 -2.381898 -1.419598 6.136599 15.661892 6.796022 17.329399 -4.550501 0.000002 0.000004 -1271.867448 -485.418648 -490.878483 0.000003 -0.000001 -11.106502 634.018484 -52.241521 649.709997 0.000000 -0.000004 -12.874299 -404.507298 -4.537889 2.007378 2.431901 0.469597 -2.489403 -330.979438 -37.401750 24.378292 0.000003 -0.000010 -18.200203 318.201875 51.747555 31.526613 -0.000000 -0.000006 -16.279892 23.913932 18.743238 -9.590666 -1.988005 -0.073504 -2.712999 -120.857834 -28.031651 -83.919522 -0.000009 -0.000008 -19.547792 -1787.511432 148.152759 28.768856 0.000014 0.000005 -14.881189 2178.073888 46.134472 -380.591992
69.766205 -37.446594 40.601402 4300.093015 17.938790 -6.471370 -0.779996 1.005797 5.403092 21.481707 -6.610287 2.384836 0.000000 -0.000002 4.236804 -19.792753 -2.429045 -2.171043 0.000005 0.000002 9.874396 57.990171 10.139820 4.023274 0.000002 0.000006 2.173893 3.540593 -0.331302 5.876188 2.681597 -0.377597 5.432501 -0.671328 1.760112 1.320386 5.161510 -0.000004 -0.000002 167.694477 -163.277188 96.036838 0.000004 0.000002 -10.869090 -14.600062 -26.237914 10.753890 0.000004 0.000009 -13.344799 -59.059211 -7.520076 7.857925 -2.381896 -1.419595 6.136592 15.638992 6.773856 17.226149 -4.550499 -0.000006 0.000002 -1271.385619 -485.694643 -490.631285 0.000003 -0.000003 -11.106490 633.593483 -52.218920 649.722455 0.000001 0.000002 -12.874302 -404.416375 -4.548026 2.085077 2.431899 0.469604 -2.489401 -331.018971 -37.350025 24.318317 -0.000001 -0.000005 -18.200201 318.173871 51.710577 31.559360 -0.000001 -0.000005 -16.279888 23.808378 18.698008 -9.465031 -1.987997 -0.073498 -2.713006 -120.840977 -28.000330 -83.853249 0.000004 -0.000009 -19.547798 -1787.204128 147.992495 28.530571 -0.000003 0.000007 -14.881189 2178.168309 46.300930 -380.219665
69.769501 -37.453297 40.605198 4300.095638 18.219007 -6.402925 -0.779999 1.005804 5.403095 21.519399 -6.921779 2.412392 -0.000001 0.000006 4.236798 -19.724191 -2.439857 -2.159718 -0.000001 0.000002 9.874393 57.892397 10.199790 4.038437 0.000011 0.000001 2.173893 3.599201 -0.366492 5.808135 2.681603 -0.377595 5.432493 -0.784853 1.747692 1.571044 5.161504 -0.000003 0.000007 167.727890 -163.111392 95.964151 0.000001 -0.000002 -10.869116 -14.745258 -26.031191 10.541729 0.000000 -0.000001 -13.344802 -58.812266 -7.435155 7.720065 -2.381905 -1.419596 6.136594 15.636321 6.773137 17.134062 -4.550512 0.000000 -0.000006 -1271.123121 -485.898674 -490.525116 0.000002 -0.000007 -11.106490 633.198807 -52.134687 649.592299 0.000005 -0.000005 -12.874296 -404.280427 -4.582390 2.239177 2.431905 0.469607 -2.489403 -330.941243 -37.601076 24.381619 -0.000000 -0.000002 -18.200203 318.154829 51.682190 31.593252 0.000003 -0.000005 -16.279902 23.731593 18.655475 -9.362774 -1.988003 -0.073498 -2.713006 -120.880715 -27.752831 -84.049364 -0.000011 -0.000013 -19.547804 -1786.862946 147.803709 28.280697 0.000004 0.000004 -14.881197 2178.321305 46.467116 -379.887636
